<svg width="25" height="21" viewBox="0 0 25 21" fill="none" xmlns="http://www.w3.org/2000/svg">
<path d="M1.875 0.5C0.841016 0.5 0 1.34102 0 2.375V4.875C0 5.22031 0.279687 5.5 0.625 5.5H3.75V2.375C3.75 1.34102 2.90898 0.5 1.875 0.5ZM10 16.616V14.25H21.25V4.25C21.25 2.18203 19.568 0.5 17.5 0.5H4.35898C4.75547 1.02383 5 1.66875 5 2.375V16.75C5 18.2684 6.35352 19.4707 7.91992 19.2156C9.14922 19.0156 10 17.8617 10 16.616ZM11.25 15.5V16.75C11.25 18.8176 9.56797 20.5 7.5 20.5H20.625C23.0414 20.5 25 18.5414 25 16.125C25 15.7797 24.7203 15.5 24.375 15.5H11.25Z" fill="#828282"/>
</svg>
