<svg width="25" height="21" viewBox="0 0 25 21" fill="none" xmlns="http://www.w3.org/2000/svg">
<path d="M25 8.76388V9.45833C25 10.0336 24.5336 10.5 23.9583 10.5H23.6111L22.4777 18.4335C22.3311 19.4598 21.4521 20.2222 20.4154 20.2222H4.58464C3.54787 20.2222 2.66888 19.4598 2.52222 18.4335L1.38889 10.5H1.04167C0.466363 10.5 0 10.0336 0 9.45833V8.76388C0 8.18858 0.466363 7.72222 1.04167 7.72222H3.96445L8.599 1.34978C9.05017 0.729465 9.91875 0.592268 10.5391 1.04344C11.1595 1.49461 11.2967 2.36323 10.8455 2.98359L7.39918 7.72222H17.6008L14.1545 2.98354C13.7033 2.36323 13.8405 1.49457 14.4609 1.0434C15.0812 0.592225 15.9499 0.729378 16.401 1.34973L21.0355 7.72222H23.9583C24.5336 7.72222 25 8.18858 25 8.76388ZM13.5417 16.4028V11.5417C13.5417 10.9664 13.0753 10.5 12.5 10.5C11.9247 10.5 11.4583 10.9664 11.4583 11.5417V16.4028C11.4583 16.9781 11.9247 17.4444 12.5 17.4444C13.0753 17.4444 13.5417 16.9781 13.5417 16.4028ZM18.4028 16.4028V11.5417C18.4028 10.9664 17.9364 10.5 17.3611 10.5C16.7858 10.5 16.3194 10.9664 16.3194 11.5417V16.4028C16.3194 16.9781 16.7858 17.4444 17.3611 17.4444C17.9364 17.4444 18.4028 16.9781 18.4028 16.4028ZM8.68056 16.4028V11.5417C8.68056 10.9664 8.21419 10.5 7.63889 10.5C7.06358 10.5 6.59722 10.9664 6.59722 11.5417V16.4028C6.59722 16.9781 7.06358 17.4444 7.63889 17.4444C8.21419 17.4444 8.68056 16.9781 8.68056 16.4028Z" fill="#828282"/>
</svg>
