<svg width="25" height="19" viewBox="0 0 25 19" fill="none" xmlns="http://www.w3.org/2000/svg">
<path d="M24.2188 15.75H3.125V0.90625C3.125 0.474609 2.77539 0.125 2.34375 0.125H0.78125C0.349609 0.125 0 0.474609 0 0.90625V17.3125C0 18.1753 0.699707 18.875 1.5625 18.875H24.2188C24.6504 18.875 25 18.5254 25 18.0938V16.5312C25 16.0996 24.6504 15.75 24.2188 15.75ZM22.6562 1.6875H16.8916C15.8477 1.6875 15.3247 2.94971 16.063 3.68799L17.645 5.27002L14.0625 8.85303L10.48 5.27051C9.86963 4.66016 8.88037 4.66016 8.27051 5.27051L4.9165 8.62451C4.61133 8.92969 4.61133 9.42432 4.9165 9.72949L6.021 10.834C6.32617 11.1392 6.8208 11.1392 7.12598 10.834L9.375 8.58447L12.9575 12.167C13.5679 12.7773 14.5571 12.7773 15.167 12.167L19.8545 7.47949L21.4365 9.06152C22.1748 9.7998 23.437 9.27686 23.437 8.23291V2.46875C23.4375 2.03711 23.0879 1.6875 22.6562 1.6875Z" fill="#828282"/>
</svg>
